<svg width="30" height="29" viewBox="0 0 30 29" fill="none" xmlns="http://www.w3.org/2000/svg">
<path d="M29.5 14.5C29.5 6.49123 23.0088 0 15 0C6.99123 0 0.5 6.49123 0.5 14.5C0.5 21.7381 5.79945 27.7367 12.7356 28.8252V18.6951H9.05699V14.5H12.7356V11.306C12.7356 7.67507 14.8967 5.66493 18.2099 5.66493C19.7989 5.66493 21.4594 5.95096 21.4594 5.95096V9.51836H19.6321C17.8285 9.51836 17.2723 10.6386 17.2723 11.7827V14.5H21.2926L20.649 18.6951H17.2723V28.8252C24.2005 27.7367 29.5 21.7381 29.5 14.5Z" fill="#1877F2"/>
<path d="M20.6409 18.6942L21.2844 14.4991H17.2642V11.7819C17.2642 10.6378 17.8283 9.51749 19.6239 9.51749H21.4513V5.95009C21.4513 5.95009 19.7907 5.66406 18.2017 5.66406C14.8886 5.66406 12.7275 7.6742 12.7275 11.3052V14.4991H9.04883V18.6942H12.7275V28.8243C13.4664 28.9435 14.2212 28.9991 14.9918 28.9991C15.7625 28.9991 16.5173 28.9356 17.2562 28.8243V18.6942H20.6409Z" fill="white"/>
</svg>
