<svg width="60" height="60" viewBox="0 0 60 60" fill="none" xmlns="http://www.w3.org/2000/svg">
<path d="M0 30C0 13.4315 13.4315 0 30 0C46.5685 0 60 13.4315 60 30V60H12C5.37258 60 0 54.6274 0 48V30Z" fill="white"/>
<path d="M18.3691 33.9434V36H11.9268V33.9434H18.3691ZM12.7793 23.2031V36H10.1426V23.2031H12.7793ZM19.3184 31.3418V31.1572C19.3184 30.46 19.418 29.8184 19.6172 29.2324C19.8164 28.6406 20.1064 28.1279 20.4873 27.6943C20.8682 27.2607 21.3369 26.9238 21.8936 26.6836C22.4502 26.4375 23.0889 26.3145 23.8096 26.3145C24.5303 26.3145 25.1719 26.4375 25.7344 26.6836C26.2969 26.9238 26.7686 27.2607 27.1494 27.6943C27.5361 28.1279 27.8291 28.6406 28.0283 29.2324C28.2275 29.8184 28.3271 30.46 28.3271 31.1572V31.3418C28.3271 32.0332 28.2275 32.6748 28.0283 33.2666C27.8291 33.8525 27.5361 34.3652 27.1494 34.8047C26.7686 35.2383 26.2998 35.5752 25.7432 35.8154C25.1865 36.0557 24.5479 36.1758 23.8271 36.1758C23.1064 36.1758 22.4648 36.0557 21.9023 35.8154C21.3457 35.5752 20.874 35.2383 20.4873 34.8047C20.1064 34.3652 19.8164 33.8525 19.6172 33.2666C19.418 32.6748 19.3184 32.0332 19.3184 31.3418ZM21.8496 31.1572V31.3418C21.8496 31.7402 21.8848 32.1123 21.9551 32.458C22.0254 32.8037 22.1367 33.1084 22.2891 33.3721C22.4473 33.6299 22.6523 33.832 22.9043 33.9785C23.1562 34.125 23.4639 34.1982 23.8271 34.1982C24.1787 34.1982 24.4805 34.125 24.7324 33.9785C24.9844 33.832 25.1865 33.6299 25.3389 33.3721C25.4912 33.1084 25.6025 32.8037 25.6729 32.458C25.749 32.1123 25.7871 31.7402 25.7871 31.3418V31.1572C25.7871 30.7705 25.749 30.4072 25.6729 30.0674C25.6025 29.7217 25.4883 29.417 25.3301 29.1533C25.1777 28.8838 24.9756 28.6729 24.7236 28.5205C24.4717 28.3682 24.167 28.292 23.8096 28.292C23.4521 28.292 23.1475 28.3682 22.8955 28.5205C22.6494 28.6729 22.4473 28.8838 22.2891 29.1533C22.1367 29.417 22.0254 29.7217 21.9551 30.0674C21.8848 30.4072 21.8496 30.7705 21.8496 31.1572ZM35.9033 26.4902H38.1973V35.6836C38.1973 36.5508 38.0039 37.2861 37.6172 37.8896C37.2363 38.499 36.7031 38.959 36.0176 39.2695C35.332 39.5859 34.5352 39.7441 33.627 39.7441C33.2285 39.7441 32.8066 39.6914 32.3613 39.5859C31.9219 39.4805 31.5 39.3164 31.0957 39.0938C30.6973 38.8711 30.3633 38.5898 30.0938 38.25L31.21 36.7559C31.5029 37.0957 31.8428 37.3594 32.2295 37.5469C32.6162 37.7402 33.0439 37.8369 33.5127 37.8369C33.9697 37.8369 34.3564 37.752 34.6729 37.582C34.9893 37.418 35.2324 37.1748 35.4023 36.8525C35.5723 36.5361 35.6572 36.1523 35.6572 35.7012V28.6875L35.9033 26.4902ZM29.5049 31.3594V31.1748C29.5049 30.4482 29.5928 29.7891 29.7686 29.1973C29.9502 28.5996 30.2051 28.0869 30.5332 27.6592C30.8672 27.2314 31.2715 26.9004 31.7461 26.666C32.2207 26.4316 32.7568 26.3145 33.3545 26.3145C33.9873 26.3145 34.5176 26.4316 34.9453 26.666C35.373 26.9004 35.7246 27.2344 36 27.668C36.2754 28.0957 36.4893 28.6025 36.6416 29.1885C36.7998 29.7686 36.9229 30.4043 37.0107 31.0957V31.5C36.9229 32.1621 36.791 32.7773 36.6152 33.3457C36.4395 33.9141 36.208 34.4121 35.9209 34.8398C35.6338 35.2617 35.2764 35.5898 34.8486 35.8242C34.4268 36.0586 33.9229 36.1758 33.3369 36.1758C32.751 36.1758 32.2207 36.0557 31.7461 35.8154C31.2773 35.5752 30.876 35.2383 30.542 34.8047C30.208 34.3711 29.9502 33.8613 29.7686 33.2754C29.5928 32.6895 29.5049 32.0508 29.5049 31.3594ZM32.0361 31.1748V31.3594C32.0361 31.752 32.0742 32.1182 32.1504 32.458C32.2266 32.7979 32.3438 33.0996 32.502 33.3633C32.666 33.6211 32.8682 33.8232 33.1084 33.9697C33.3545 34.1104 33.6445 34.1807 33.9785 34.1807C34.4414 34.1807 34.8193 34.084 35.1123 33.8906C35.4053 33.6914 35.625 33.4189 35.7715 33.0732C35.918 32.7275 36.0029 32.3291 36.0264 31.8779V30.7266C36.0146 30.3574 35.9648 30.0264 35.877 29.7334C35.7891 29.4346 35.666 29.1797 35.5078 28.9688C35.3496 28.7578 35.1445 28.5938 34.8926 28.4766C34.6406 28.3594 34.3418 28.3008 33.9961 28.3008C33.6621 28.3008 33.3721 28.377 33.126 28.5293C32.8857 28.6758 32.6836 28.8779 32.5195 29.1357C32.3613 29.3936 32.2412 29.6982 32.1592 30.0498C32.0771 30.3955 32.0361 30.7705 32.0361 31.1748ZM39.7617 31.3418V31.1572C39.7617 30.46 39.8613 29.8184 40.0605 29.2324C40.2598 28.6406 40.5498 28.1279 40.9307 27.6943C41.3115 27.2607 41.7803 26.9238 42.3369 26.6836C42.8936 26.4375 43.5322 26.3145 44.2529 26.3145C44.9736 26.3145 45.6152 26.4375 46.1777 26.6836C46.7402 26.9238 47.2119 27.2607 47.5928 27.6943C47.9795 28.1279 48.2725 28.6406 48.4717 29.2324C48.6709 29.8184 48.7705 30.46 48.7705 31.1572V31.3418C48.7705 32.0332 48.6709 32.6748 48.4717 33.2666C48.2725 33.8525 47.9795 34.3652 47.5928 34.8047C47.2119 35.2383 46.7432 35.5752 46.1865 35.8154C45.6299 36.0557 44.9912 36.1758 44.2705 36.1758C43.5498 36.1758 42.9082 36.0557 42.3457 35.8154C41.7891 35.5752 41.3174 35.2383 40.9307 34.8047C40.5498 34.3652 40.2598 33.8525 40.0605 33.2666C39.8613 32.6748 39.7617 32.0332 39.7617 31.3418ZM42.293 31.1572V31.3418C42.293 31.7402 42.3281 32.1123 42.3984 32.458C42.4688 32.8037 42.5801 33.1084 42.7324 33.3721C42.8906 33.6299 43.0957 33.832 43.3477 33.9785C43.5996 34.125 43.9072 34.1982 44.2705 34.1982C44.6221 34.1982 44.9238 34.125 45.1758 33.9785C45.4277 33.832 45.6299 33.6299 45.7822 33.3721C45.9346 33.1084 46.0459 32.8037 46.1162 32.458C46.1924 32.1123 46.2305 31.7402 46.2305 31.3418V31.1572C46.2305 30.7705 46.1924 30.4072 46.1162 30.0674C46.0459 29.7217 45.9316 29.417 45.7734 29.1533C45.6211 28.8838 45.4189 28.6729 45.167 28.5205C44.915 28.3682 44.6104 28.292 44.2529 28.292C43.8955 28.292 43.5908 28.3682 43.3389 28.5205C43.0928 28.6729 42.8906 28.8838 42.7324 29.1533C42.5801 29.417 42.4688 29.7217 42.3984 30.0674C42.3281 30.4072 42.293 30.7705 42.293 31.1572Z" fill="#0A0B0A"/>
</svg>
