<svg width="39" height="44" viewBox="0 0 39 44" fill="none" xmlns="http://www.w3.org/2000/svg">
<path d="M25.3525 3.82206L12.047 10.209C11.023 10.7006 9.92887 10.8237 8.81349 10.5739C8.08354 10.4103 7.71852 10.3286 7.42461 10.295C3.77486 9.87823 1.5 12.7668 1.5 16.0885V17.9115C1.5 21.2332 3.77486 24.1218 7.42461 23.705C7.71851 23.6714 8.08356 23.5896 8.81349 23.4261C9.92886 23.1763 11.023 23.2994 12.047 23.791L25.3525 30.1779C28.4069 31.6441 29.9341 32.3772 31.6368 31.8058C33.3395 31.2344 33.9239 30.0083 35.0927 27.5561C38.3024 20.8223 38.3024 13.1777 35.0927 6.44393C33.9239 3.99172 33.3395 2.76561 31.6368 2.1942C29.9341 1.62279 28.4069 2.35588 25.3525 3.82206Z" stroke="white" stroke-width="3" stroke-linecap="round" stroke-linejoin="round"/>
<path d="M18.4161 39.5418L15.4335 42C8.7103 36.6678 9.53167 34.125 9.53167 24H11.7993C12.7196 29.7218 14.8902 32.4321 17.8855 34.3941C19.7304 35.6025 20.1109 38.145 18.4161 39.5418Z" stroke="white" stroke-width="3" stroke-linecap="round" stroke-linejoin="round"/>
<path d="M10.5 23V11" stroke="white" stroke-width="3" stroke-linecap="round" stroke-linejoin="round"/>
</svg>
